REM DIRINDEX 1\2,1\3,1\4,1\5
REM DIRNAME "folder01","folder02","folder03","folder04","folder05"
TITLE ""
FILE "P1Q_t_1378-1387.mp3" MP3
  TRACK 01 AUDIO
    TITLE "3:cjc173_5106"
    INDEX 01 00:00:00
  TRACK 02 AUDIO
    TITLE "0:"
    INDEX 01 00:01:22
  TRACK 03 AUDIO
    TITLE "4:cjc173_5107"
    INDEX 01 00:01:41
  TRACK 04 AUDIO
    TITLE "0:"
    INDEX 01 00:02:66
  TRACK 05 AUDIO
    TITLE "5:cjc173_5108"
    INDEX 01 00:03:11
  TRACK 06 AUDIO
    TITLE "0:"
    INDEX 01 00:06:60
  TRACK 07 AUDIO
    TITLE "3:cjc173_5109"
    INDEX 01 00:07:32
  TRACK 08 AUDIO
    TITLE "0:"
    INDEX 01 00:08:35
  TRACK 09 AUDIO
    TITLE "4:cjc173_5110"
    INDEX 01 00:08:61
  TRACK 10 AUDIO
    TITLE "0:"
    INDEX 01 00:11:04
  TRACK 11 AUDIO
    TITLE "5:cjc173_5111"
    INDEX 01 00:11:24
  TRACK 12 AUDIO
    TITLE "0:"
    INDEX 01 00:16:27
  TRACK 13 AUDIO
    TITLE "3:cjc173_5112"
    INDEX 01 00:16:72
  TRACK 14 AUDIO
    TITLE "0:"
    INDEX 01 00:18:02
  TRACK 15 AUDIO
    TITLE "4:cjc173_5113"
    INDEX 01 00:18:26
  TRACK 16 AUDIO
    TITLE "0:"
    INDEX 01 00:20:60
  TRACK 17 AUDIO
    TITLE "5:cjc173_5114"
    INDEX 01 00:21:05
  TRACK 18 AUDIO
    TITLE "0:"
    INDEX 01 00:25:36
  TRACK 19 AUDIO
    TITLE "3:cjc173_5115"
    INDEX 01 00:26:08
  TRACK 20 AUDIO
    TITLE "0:"
    INDEX 01 00:27:21
  TRACK 21 AUDIO
    TITLE "4:cjc173_5116"
    INDEX 01 00:27:42
  TRACK 22 AUDIO
    TITLE "0:"
    INDEX 01 00:29:43
  TRACK 23 AUDIO
    TITLE "5:cjc173_5117"
    INDEX 01 00:29:63
  TRACK 24 AUDIO
    TITLE "0:"
    INDEX 01 00:34:21
  TRACK 25 AUDIO
    TITLE "3:cjc173_5118"
    INDEX 01 00:34:66
  TRACK 26 AUDIO
    TITLE "0:"
    INDEX 01 00:35:69
  TRACK 27 AUDIO
    TITLE "4:cjc173_5119"
    INDEX 01 00:36:18
  TRACK 28 AUDIO
    TITLE "0:"
    INDEX 01 00:39:04
  TRACK 29 AUDIO
    TITLE "5:cjc173_5120"
    INDEX 01 00:39:26
  TRACK 30 AUDIO
    TITLE "0:"
    INDEX 01 00:45:15
  TRACK 31 AUDIO
    TITLE "3:cjc173_5121"
    INDEX 01 00:45:60
  TRACK 32 AUDIO
    TITLE "0:"
    INDEX 01 00:46:71
  TRACK 33 AUDIO
    TITLE "4:cjc173_5122"
    INDEX 01 00:47:16
  TRACK 34 AUDIO
    TITLE "0:"
    INDEX 01 00:50:51
  TRACK 35 AUDIO
    TITLE "5:cjc173_5123"
    INDEX 01 00:50:71
  TRACK 36 AUDIO
    TITLE "0:"
    INDEX 01 00:54:26
  TRACK 37 AUDIO
    TITLE "3:cjc173_5124"
    INDEX 01 00:54:73
  TRACK 38 AUDIO
    TITLE "0:"
    INDEX 01 00:56:05
  TRACK 39 AUDIO
    TITLE "4:cjc173_5125"
    INDEX 01 00:56:28
  TRACK 40 AUDIO
    TITLE "0:"
    INDEX 01 00:57:65
  TRACK 41 AUDIO
    TITLE "5:cjc173_5126"
    INDEX 01 00:58:10
  TRACK 42 AUDIO
    TITLE "0:"
    INDEX 01 01:03:15
  TRACK 43 AUDIO
    TITLE "3:cjc173_5127"
    INDEX 01 01:03:60
  TRACK 44 AUDIO
    TITLE "0:"
    INDEX 01 01:05:02
  TRACK 45 AUDIO
    TITLE "4:cjc173_5128"
    INDEX 01 01:05:22
  TRACK 46 AUDIO
    TITLE "0:"
    INDEX 01 01:06:37
  TRACK 47 AUDIO
    TITLE "5:cjc173_5129"
    INDEX 01 01:06:56
  TRACK 48 AUDIO
    TITLE "0:"
    INDEX 01 01:10:31
  TRACK 49 AUDIO
    TITLE "3:cjc173_5130"
    INDEX 01 01:11:01
  TRACK 50 AUDIO
    TITLE "0:"
    INDEX 01 01:12:22
  TRACK 51 AUDIO
    TITLE "4:cjc173_5131"
    INDEX 01 01:12:43
  TRACK 52 AUDIO
    TITLE "0:"
    INDEX 01 01:17:05
  TRACK 53 AUDIO
    TITLE "5:cjc173_5132"
    INDEX 01 01:17:25
  TRACK 54 AUDIO
    TITLE "0:"
    INDEX 01 01:21:50
  TRACK 55 AUDIO
    TITLE "3:cjc173_5133"
    INDEX 01 01:22:20
  TRACK 56 AUDIO
    TITLE "0:"
    INDEX 01 01:23:45
  TRACK 57 AUDIO
    TITLE "4:cjc173_5134"
    INDEX 01 01:23:66
  TRACK 58 AUDIO
    TITLE "0:"
    INDEX 01 01:27:23
  TRACK 59 AUDIO
    TITLE "5:cjc173_5135"
    INDEX 01 01:27:45
  TRACK 60 AUDIO
    TITLE "0:"
    INDEX 01 01:31:62
